Coordinates
version=1
nRows=8
nColumns=36
inDegrees=yes

Units are S.I. units (second, meters, Newtons, ...)
If the header above contains a line with 'inDegrees', this indicates whether rotational values are in degrees (yes) or radians (no).

endheader
time	pelvis_tilt	pelvis_list	pelvis_rotation	pelvis_tx	pelvis_ty	pelvis_tz	hip_flexion_r	hip_adduction_r	hip_rotation_r	knee_angle_r	knee_angle_r_beta	ankle_angle_r	subtalar_angle_r	mtp_angle_r	hip_flexion_l	hip_adduction_l	hip_rotation_l	knee_angle_l	knee_angle_l_beta	ankle_angle_l	subtalar_angle_l	mtp_angle_l	lumbar_extension	lumbar_bending	lumbar_rotation	arm_flex_r	arm_add_r	arm_rot_r	elbow_flex_r	pro_sup_r	arm_flex_l	arm_add_l	arm_rot_l	elbow_flex_l	pro_sup_l
      6.65000000	     -2.77627579	     -1.04953638	      1.95061401	      0.35824830	      0.96043420	     -0.10804461	     -3.42261831	     -0.31156566	    -11.22085756	      0.40292854	      0.00703243	     -2.62955599	    -14.95591818	     -7.49999987	     -0.81806558	     -2.83192634	      0.30144633	      0.94772493	      0.01654092	      1.31565663	     -2.52951112	     -7.49999987	      4.24517349	      3.28251484	      2.08340820	   -197.42917949	    -28.89054808	   -279.38287591	      8.75449562	     55.68788380	     97.88869622	    -64.13316179	     32.74567348	     29.32330590	     67.29160216
      6.66666670	     -2.49830284	     -1.03097930	      1.95748474	      0.35843010	      0.96066728	     -0.10839931	     -3.67528481	     -0.28267672	    -11.07588066	      0.39492557	      0.00689275	     -2.57340675	    -14.92818778	     -7.49999987	     -1.05805093	     -2.84919485	      0.42899951	      0.95219133	      0.01661887	      1.25309094	     -2.67864038	     -7.49999987	      4.11013376	      3.07438706	      1.82298405	   -199.35759529	    -31.03709624	   -279.69550802	      8.82159066	     55.63913221	     96.31395667	    -64.35978429	     32.69164610	     28.60606771	     67.25363080
      6.68333330	     -2.95771213	     -0.98862764	      1.99071543	      0.35846070	      0.96054158	     -0.10820048	     -3.15020391	     -0.29016155	    -11.06648588	      0.41046938	      0.00716404	     -2.59027225	    -14.95190453	     -7.49999987	     -0.45927773	     -2.82913270	      0.50270149	      1.02065691	      0.01781382	      1.05212984	     -2.78309783	     -7.49999987	      5.15189711	      2.76545432	     -2.39899250	   -209.98636679	    -33.76061087	   -316.14807703	     20.92034916	     78.53798121	     92.20277766	    -70.65199861	     28.43924865	     31.33771377	     68.98818153
      6.70000000	     -2.96013819	     -0.98313866	      2.02000528	      0.35877779	      0.96054048	     -0.10835440	     -3.15517419	     -0.27322175	    -11.11109680	      0.44261913	      0.00772516	     -2.78721052	    -15.12011474	     -7.49999987	     -0.40386280	     -2.84618971	      0.55074700	      1.06160568	      0.01852851	      1.00230977	     -2.85742098	     -7.49999987	      5.30361644	      2.47856920	     -3.54444208	   -212.56316915	    -35.96142534	   -315.96736942	     23.37461379	     77.12217276	     91.23471053	    -71.93194486	     28.50586661	     30.88710478	     68.44410076
      6.71666670	     -2.88050533	     -0.98899786	      2.01616281	      0.35874718	      0.96089182	     -0.10795488	     -3.25165908	     -0.22807960	    -11.21564652	      0.49228730	      0.00859203	     -2.82808518	    -14.93449257	     -7.49999987	     -0.46078278	     -2.86763778	      0.45591441	      1.08222853	      0.01888845	      1.03351849	     -2.60199227	     -7.49999987	      5.28899227	      2.20353794	     -4.00856072	   -213.96201935	    -38.10971811	   -315.61091866	     24.44117032	     76.57199236	     89.86325013	    -72.69142253	     28.66728411	     30.59377626	     68.17960538
      6.73333330	     -2.87646283	     -0.94598770	      2.07561804	      0.35918286	      0.96070546	     -0.10841189	     -3.25540312	     -0.27806163	    -11.32461222	      0.52828007	      0.00922023	     -2.62398620	    -14.76347508	     -7.49999987	     -0.42474331	     -2.83175411	      0.26403070	      1.13349490	      0.01978322	      1.20991453	     -2.19334398	     -7.49999987	      5.38053808	      1.80700521	     -4.50859342	   -215.58326460	    -41.03534030	   -315.30173421	     25.90967751	     75.89779662	     88.22250281	    -73.54584694	     28.81051161	     30.53958284	     67.84170691
      6.75000000	     -2.87851317	     -0.92169736	      2.10201166	      0.35887366	      0.96100597	     -0.10777366	     -3.22686184	     -0.28519489	    -10.96877088	      0.55685606	      0.00971897	     -2.85746121	    -15.45628812	     -7.49999987	     -0.37861494	     -2.82199913	      0.62408744	      1.17097656	      0.02043740	      0.87964226	     -3.08984174	     -7.49999987	      5.35735481	      1.61326744	     -5.63520563	   -218.50412469	    -42.85936825	   -316.00569488	     26.92263823	     76.25095215	     85.10856254	    -75.35319210	     27.56329836	     29.62442869	     68.02594472
      6.76666670	     -3.13459247	     -0.92014452	      2.09706580	      0.35954320	      0.96091963	     -0.10785651	     -2.94399143	     -0.30177708	    -10.97436224	      0.59187765	      0.01033021	     -2.68688385	    -15.25109036	     -7.49999987	     -0.09846410	     -2.82463429	      0.50067518	      1.19647995	      0.02088251	      0.87469164	     -2.86741180	     -7.49999987	      5.03217185	      2.48164091	    -13.44031475	   -227.83647345	    -35.09384728	   -335.64663280	     26.23722006	     85.19214459	     -7.11456679	    -84.52059211	    -62.81289921	     38.37634286	     66.96756898
